<svg xmlns="http://www.w3.org/2000/svg" xmlns:v="https://svgstorm.com"
viewBox = "0 0 457 474"
width="457"
height="474">
<g fill="None" fill-opacity="0.0" stroke="#000000" stroke-opacity="0.00" stroke-width="0.3"><path d="
M 0.00 474.00 
L 457.00 474.00
L 457.00 0.00
L 0.00 0.00
L 0.00 474.00
M 274.00 109.00 
C 284.57 121.37 292.58 135.59 297.00 151.00
C 328.97 139.65 365.45 145.37 400.00 144.00
C 399.75 191.84 406.92 244.65 372.00 281.00
C 368.41 285.21 364.41 289.72 360.00 293.00
C 354.02 297.45 347.39 302.71 341.00 306.00
C 341.27 306.11 341.89 309.56 342.00 310.00
C 344.11 318.71 351.31 329.77 350.00 339.00
C 349.54 342.21 346.91 345.45 344.00 347.00
C 337.66 350.38 328.94 352.83 322.00 355.00
C 320.16 356.53 320.13 356.50 322.00 358.00
C 329.49 364.04 351.83 363.01 349.99 378.01 C 348.16 393.01 340.36 398.04 337.23 413.23 C 334.09 428.42 316.52 425.38 305.32 419.68 C 294.12 413.98 281.92 411.60 270.31 406.69 C 258.69 401.79 245.91 398.18 234.00 394.00
C 231.72 393.20 229.41 391.26 227.00 391.00
C 214.59 389.69 200.33 401.11 188.77 403.77 C 177.21 406.43 161.61 413.79 150.98 416.98 C 140.34 420.16 121.40 432.44 114.25 418.75 C 107.09 405.07 106.57 395.13 101.02 380.98 C 95.47 366.82 118.50 360.96 128.00 358.00
C 129.99 356.29 129.46 355.30 127.00 354.00
C 119.83 350.22 106.38 350.73 101.75 342.25 C 97.13 333.77 104.53 321.44 107.00 313.00
C 107.52 311.22 107.95 310.38 109.00 309.00
C 109.64 308.16 109.82 307.25 111.00 307.00
C 103.36 303.22 95.85 297.41 89.00 292.00
C 84.95 288.80 81.30 284.86 78.00 281.00
C 60.92 261.02 50.00 235.56 50.00 209.00
C 49.76 206.49 49.76 203.45 50.00 201.00
C 50.00 185.67 50.00 170.33 50.00 155.00
C 49.75 152.40 49.03 150.77 50.00 148.00
C 50.42 146.81 49.68 145.22 50.00 144.00
C 84.18 145.60 120.42 139.28 152.00 151.00
C 156.39 135.59 164.51 121.38 175.00 109.00
C 190.09 91.34 208.81 76.49 224.00 59.00
C 241.00 75.17 257.88 92.05 274.00 109.00 Z"/>
</g>
<g fill="None" fill-opacity="0.0" stroke="#096FC3" stroke-opacity="0.46" stroke-width="0.3"><path d="
M 175.00 109.00 
C 191.25 92.75 208.53 76.93 224.00 60.00
C 241.17 75.67 256.88 93.38 274.00 109.00
C 257.88 92.05 241.00 75.17 224.00 59.00
C 208.81 76.49 190.09 91.34 175.00 109.00 Z"/>
</g>
<g fill="None" fill-opacity="0.0" stroke="#02C8FC" stroke-opacity="1.00" stroke-width="0.3"><path d="
M 175.00 109.00 
C 164.51 121.38 156.39 135.59 152.00 151.00
C 120.42 139.28 84.18 145.60 50.00 144.00
C 49.68 145.22 50.42 146.81 50.00 148.00
C 49.60 150.16 50.00 152.80 50.00 155.00
C 50.00 170.33 50.00 185.67 50.00 201.00
C 50.00 203.67 50.00 206.33 50.00 209.00
C 50.00 235.56 60.92 261.02 78.00 281.00
C 81.53 284.53 85.40 288.67 89.00 292.00
C 95.85 297.41 103.36 303.22 111.00 307.00
C 127.80 315.31 145.72 319.00 165.00 319.00
C 133.62 315.96 109.70 299.84 91.08 272.92 C 72.46 246.00 73.62 202.69 75.00 169.00
C 86.49 168.68 96.35 169.42 108.00 169.00 C 119.65 168.58 128.02 169.43 140.00 170.00 C 151.98 170.57 145.25 184.75 148.00 194.00
C 151.14 218.15 159.99 239.27 176.00 258.00
C 176.99 258.67 178.06 258.03 178.00 258.00
C 149.34 219.85 158.07 171.30 184.00 135.00
C 194.43 120.39 211.76 110.66 222.00 96.00
C 215.13 90.26 222.94 80.13 231.00 82.00 C 239.06 83.87 237.90 99.44 229.00 98.00
C 241.01 109.21 256.62 122.60 266.00 136.00
C 291.17 171.95 299.18 220.48 271.00 258.00
C 270.83 258.07 272.21 258.54 273.00 258.00
C 288.66 239.67 297.92 218.67 301.00 195.00
C 302.20 185.79 297.45 171.44 308.22 170.22 C 318.99 169.00 329.83 168.78 341.00 169.00 C 352.17 169.22 363.79 168.84 375.00 169.00
C 376.20 202.78 377.64 244.23 359.75 271.75 C 341.85 299.27 319.04 313.17 288.00 318.00
C 287.94 318.01 288.00 319.00 288.00 319.00
C 306.15 319.00 323.05 314.57 339.00 307.00
C 339.39 306.81 340.47 306.27 341.00 306.00
C 347.39 302.71 354.02 297.45 360.00 293.00
C 364.02 289.49 368.24 284.76 372.00 281.00
C 406.92 244.65 399.75 191.84 400.00 144.00
C 365.45 145.37 328.97 139.65 297.00 151.00
C 292.58 135.59 284.57 121.37 274.00 109.00
C 256.88 93.38 241.17 75.67 224.00 60.00
C 208.53 76.93 191.25 92.75 175.00 109.00 Z"/>
</g>
<g fill="None" fill-opacity="0.0" stroke="#28C4D6" stroke-opacity="1.00" stroke-width="0.3"><path d="
M 222.00 96.00 
C 222.16 95.77 223.00 96.00 223.00 96.00
C 222.57 90.23 221.97 81.28 230.67 84.33 C 239.37 87.38 231.82 96.98 227.00 97.00
C 226.94 97.07 228.98 97.98 229.00 98.00
C 237.90 99.44 239.06 83.87 231.00 82.00 C 222.94 80.13 215.13 90.26 222.00 96.00 Z"/>
</g>
<g fill="None" fill-opacity="0.0" stroke="#48BEB6" stroke-opacity="1.00" stroke-width="0.3"><path d="
M 223.00 96.00 
C 224.82 95.20 225.36 95.74 227.00 97.00
C 231.82 96.98 239.37 87.38 230.67 84.33 C 221.97 81.28 222.57 90.23 223.00 96.00
M 230.00 87.00 
C 233.12 88.87 229.85 95.01 226.33 92.67 C 222.81 90.33 226.63 84.98 230.00 87.00 Z"/>
</g>
<g fill="None" fill-opacity="0.0" stroke="#0875F3" stroke-opacity="1.00" stroke-width="0.3"><path d="
M 230.00 87.00 
C 226.63 84.98 222.81 90.33 226.33 92.67 C 229.85 95.01 233.12 88.87 230.00 87.00 Z"/>
</g>
<g fill="None" fill-opacity="0.0" stroke="#0059FE" stroke-opacity="1.00" stroke-width="0.3"><path d="
M 223.00 96.00 
C 219.64 104.04 208.77 108.58 203.75 115.75 C 198.74 122.92 189.54 128.39 184.00 135.00
C 158.07 171.30 149.34 219.85 178.00 258.00
C 179.65 260.20 181.37 262.72 183.00 265.00
C 186.34 268.34 188.44 273.63 193.00 275.00
C 172.32 253.68 168.30 218.21 176.32 191.32 C 184.35 164.44 205.82 150.51 224.00 130.00
C 243.35 149.61 263.84 163.95 272.32 190.68 C 280.80 217.40 276.83 253.66 256.00 275.00
C 260.67 273.76 262.53 268.09 266.00 265.00
C 267.65 262.69 269.38 260.15 271.00 258.00
C 299.18 220.48 291.17 171.95 266.00 136.00
C 260.45 129.24 252.58 122.93 246.25 116.75 C 239.92 110.57 233.86 102.25 227.00 97.00
C 225.36 95.74 224.82 95.20 223.00 96.00 Z"/>
</g>
<g fill="None" fill-opacity="0.0" stroke="#02A0FC" stroke-opacity="1.00" stroke-width="0.3"><path d="
M 184.00 135.00 
C 189.54 128.39 198.74 122.92 203.75 115.75 C 208.77 108.58 219.64 104.04 223.00 96.00
C 223.00 96.00 222.16 95.77 222.00 96.00
C 211.76 110.66 194.43 120.39 184.00 135.00 Z"/>
</g>
<g fill="None" fill-opacity="0.0" stroke="#03A1FB" stroke-opacity="1.00" stroke-width="0.3"><path d="
M 266.00 136.00 
C 256.62 122.60 241.01 109.21 229.00 98.00
C 228.98 97.98 226.94 97.07 227.00 97.00
C 233.86 102.25 239.92 110.57 246.25 116.75 C 252.58 122.93 260.45 129.24 266.00 136.00 Z"/>
</g>
<g fill="None" fill-opacity="0.0" stroke="#0002FE" stroke-opacity="1.00" stroke-width="0.3"><path d="
M 183.00 265.00 
C 180.67 262.67 178.12 260.49 176.00 258.00
C 159.99 239.27 151.14 218.15 148.00 194.00
C 132.00 194.00 116.00 194.00 100.00 194.00
C 98.72 222.55 98.10 256.88 114.25 279.75 C 130.40 302.61 150.29 314.19 176.00 319.00
C 188.67 319.00 201.33 319.00 214.00 319.00
C 214.50 319.00 215.50 319.00 216.00 319.00
C 222.33 319.00 228.67 319.00 235.00 319.00
C 248.00 319.00 261.00 319.00 274.00 319.00
C 299.90 315.30 318.83 302.45 335.30 280.30 C 351.78 258.16 351.43 222.22 350.00 194.00
C 333.75 194.66 316.80 192.68 301.00 195.00
C 297.92 218.67 288.66 239.67 273.00 258.00
C 270.84 260.53 268.28 262.72 266.00 265.00
C 262.53 268.09 260.67 273.76 256.00 275.00
C 276.83 253.66 280.80 217.40 272.32 190.68 C 263.84 163.95 243.35 149.61 224.00 130.00
C 205.82 150.51 184.35 164.44 176.32 191.32 C 168.30 218.21 172.32 253.68 193.00 275.00
C 188.44 273.63 186.34 268.34 183.00 265.00 Z"/>
</g>
<g fill="None" fill-opacity="0.0" stroke="#0000C0" stroke-opacity="0.01" stroke-width="0.3"><path d="
M 50.00 155.00 
C 50.00 152.80 49.60 150.16 50.00 148.00
C 49.03 150.77 49.75 152.40 50.00 155.00 Z"/>
</g>
<g fill="None" fill-opacity="0.0" stroke="#0059FF" stroke-opacity="1.00" stroke-width="0.3"><path d="
M 165.00 319.00 
C 168.67 319.00 172.33 319.00 176.00 319.00
C 150.29 314.19 130.40 302.61 114.25 279.75 C 98.10 256.88 98.72 222.55 100.00 194.00
C 116.00 194.00 132.00 194.00 148.00 194.00
C 145.25 184.75 151.98 170.57 140.00 170.00 C 128.02 169.43 119.65 168.58 108.00 169.00 C 96.35 169.42 86.49 168.68 75.00 169.00
C 73.62 202.69 72.46 246.00 91.08 272.92 C 109.70 299.84 133.62 315.96 165.00 319.00 Z"/>
</g>
<g fill="None" fill-opacity="0.0" stroke="#0059FF" stroke-opacity="1.00" stroke-width="0.3"><path d="
M 301.00 195.00 
C 316.80 192.68 333.75 194.66 350.00 194.00
C 351.43 222.22 351.78 258.16 335.30 280.30 C 318.83 302.45 299.90 315.30 274.00 319.00
C 276.33 319.00 278.67 319.00 281.00 319.00
C 282.63 318.84 285.77 318.20 288.00 318.00
C 319.04 313.17 341.85 299.27 359.75 271.75 C 377.64 244.23 376.20 202.78 375.00 169.00
C 363.79 168.84 352.17 169.22 341.00 169.00 C 329.83 168.78 318.99 169.00 308.22 170.22 C 297.45 171.44 302.20 185.79 301.00 195.00 Z"/>
</g>
<g fill="None" fill-opacity="0.0" stroke="#0000FF" stroke-opacity="0.00" stroke-width="0.3"><path d="
M 50.00 209.00 
C 50.00 206.33 50.00 203.67 50.00 201.00
C 49.76 203.45 49.76 206.49 50.00 209.00 Z"/>
</g>
<g fill="None" fill-opacity="0.0" stroke="#0086FE" stroke-opacity="1.00" stroke-width="0.3"><path d="
M 183.00 265.00 
C 181.37 262.72 179.65 260.20 178.00 258.00
C 178.06 258.03 176.99 258.67 176.00 258.00
C 178.12 260.49 180.67 262.67 183.00 265.00 Z"/>
</g>
<g fill="None" fill-opacity="0.0" stroke="#0086FE" stroke-opacity="1.00" stroke-width="0.3"><path d="
M 266.00 265.00 
C 268.28 262.72 270.84 260.53 273.00 258.00
C 272.21 258.54 270.83 258.07 271.00 258.00
C 269.38 260.15 267.65 262.69 266.00 265.00 Z"/>
</g>
<g fill="None" fill-opacity="0.0" stroke="#0966BF" stroke-opacity="0.38" stroke-width="0.3"><path d="
M 89.00 292.00 
C 85.40 288.67 81.53 284.53 78.00 281.00
C 81.30 284.86 84.95 288.80 89.00 292.00 Z"/>
</g>
<g fill="None" fill-opacity="0.0" stroke="#0864BD" stroke-opacity="0.34" stroke-width="0.3"><path d="
M 360.00 293.00 
C 364.41 289.72 368.41 285.21 372.00 281.00
C 368.24 284.76 364.02 289.49 360.00 293.00 Z"/>
</g>
<g fill="None" fill-opacity="0.0" stroke="#382A62" stroke-opacity="0.37" stroke-width="0.3"><path d="
M 339.00 307.00 
C 339.02 306.90 341.90 309.80 342.00 310.00
C 341.89 309.56 341.27 306.11 341.00 306.00
C 340.47 306.27 339.39 306.81 339.00 307.00 Z"/>
</g>
<g fill="None" fill-opacity="0.0" stroke="#A12A2A" stroke-opacity="1.00" stroke-width="0.3"><path d="
M 109.00 309.00 
C 108.50 309.93 107.34 312.17 107.00 313.00
C 104.53 321.44 97.13 333.77 101.75 342.25 C 106.38 350.73 119.83 350.22 127.00 354.00
C 136.54 352.98 146.06 345.20 156.02 343.02 C 165.99 340.85 176.05 334.83 186.07 332.07 C 196.10 329.32 205.97 324.03 216.00 321.00
C 215.92 319.74 213.94 320.44 214.00 319.00
C 201.33 319.00 188.67 319.00 176.00 319.00
C 172.33 319.00 168.67 319.00 165.00 319.00
C 145.72 319.00 127.80 315.31 111.00 307.00
C 109.82 307.25 109.64 308.16 109.00 309.00 Z"/>
</g>
<g fill="None" fill-opacity="0.0" stroke="#A42A2A" stroke-opacity="1.00" stroke-width="0.3"><path d="
M 288.00 319.00 
C 285.67 319.00 283.33 319.00 281.00 319.00
C 278.67 319.00 276.33 319.00 274.00 319.00
C 261.00 319.00 248.00 319.00 235.00 319.00
C 232.17 319.51 226.98 321.83 224.00 323.00
C 192.66 335.30 160.38 347.90 128.00 358.00
C 118.50 360.96 95.47 366.82 101.02 380.98 C 106.57 395.13 107.09 405.07 114.25 418.75 C 121.40 432.44 140.34 420.16 150.98 416.98 C 161.61 413.79 177.21 406.43 188.77 403.77 C 200.33 401.11 214.59 389.69 227.00 391.00
C 231.49 388.98 240.27 383.22 248.22 381.22 C 256.18 379.23 264.65 375.27 272.68 372.68 C 280.71 370.08 288.54 366.55 296.69 363.69 C 304.85 360.84 313.67 357.60 322.00 355.00
C 328.94 352.83 337.66 350.38 344.00 347.00
C 345.70 345.92 349.66 340.62 350.00 339.00
C 351.31 329.77 344.11 318.71 342.00 310.00
C 341.90 309.80 339.02 306.90 339.00 307.00
C 323.05 314.57 306.15 319.00 288.00 319.00 Z"/>
</g>
<g fill="None" fill-opacity="0.0" stroke="#3E1E51" stroke-opacity="0.33" stroke-width="0.3"><path d="
M 107.00 313.00 
C 107.34 312.17 108.50 309.93 109.00 309.00
C 107.95 310.38 107.52 311.22 107.00 313.00 Z"/>
</g>
<g fill="None" fill-opacity="0.0" stroke="#008EFE" stroke-opacity="1.00" stroke-width="0.3"><path d="
M 281.00 319.00 
C 283.33 319.00 285.67 319.00 288.00 319.00
C 288.00 319.00 287.94 318.01 288.00 318.00
C 285.77 318.20 282.63 318.84 281.00 319.00 Z"/>
</g>
<g fill="None" fill-opacity="0.0" stroke="#812928" stroke-opacity="0.99" stroke-width="0.3"><path d="
M 127.00 354.00 
C 129.46 355.30 129.99 356.29 128.00 358.00
C 160.38 347.90 192.66 335.30 224.00 323.00
C 221.46 322.87 217.99 320.01 216.00 319.00
C 215.50 319.00 214.50 319.00 214.00 319.00
C 213.94 320.44 215.92 319.74 216.00 321.00
C 205.97 324.03 196.10 329.32 186.07 332.07 C 176.05 334.83 165.99 340.85 156.02 343.02 C 146.06 345.20 136.54 352.98 127.00 354.00 Z"/>
</g>
<g fill="None" fill-opacity="0.0" stroke="#351F4A" stroke-opacity="1.00" stroke-width="0.3"><path d="
M 224.00 323.00 
C 226.98 321.83 232.17 319.51 235.00 319.00
C 228.67 319.00 222.33 319.00 216.00 319.00
C 217.99 320.01 221.46 322.87 224.00 323.00 Z"/>
</g>
<g fill="None" fill-opacity="0.0" stroke="#492051" stroke-opacity="0.28" stroke-width="0.3"><path d="
M 344.00 347.00 
C 346.91 345.45 349.54 342.21 350.00 339.00
C 349.66 340.62 345.70 345.92 344.00 347.00 Z"/>
</g>
<g fill="None" fill-opacity="0.0" stroke="#802928" stroke-opacity="0.98" stroke-width="0.3"><path d="
M 227.00 391.00 
C 229.41 391.26 231.72 393.20 234.00 394.00
C 237.42 387.83 247.96 387.21 255.02 384.02 C 262.09 380.84 270.39 378.56 277.68 375.68 C 284.97 372.80 293.02 370.28 300.22 367.22 C 307.43 364.17 316.90 362.95 322.00 358.00
C 320.13 356.50 320.16 356.53 322.00 355.00
C 313.67 357.60 304.85 360.84 296.69 363.69 C 288.54 366.55 280.71 370.08 272.68 372.68 C 264.65 375.27 256.18 379.23 248.22 381.22 C 240.27 383.22 231.49 388.98 227.00 391.00 Z"/>
</g>
<g fill="None" fill-opacity="0.0" stroke="#A1292A" stroke-opacity="0.99" stroke-width="0.3"><path d="
M 234.00 394.00 
C 245.91 398.18 258.69 401.79 270.31 406.69 C 281.92 411.60 294.12 413.98 305.32 419.68 C 316.52 425.38 334.09 428.42 337.23 413.23 C 340.36 398.04 348.16 393.01 349.99 378.01 C 351.83 363.01 329.49 364.04 322.00 358.00
C 316.90 362.95 307.43 364.17 300.22 367.22 C 293.02 370.28 284.97 372.80 277.68 375.68 C 270.39 378.56 262.09 380.84 255.02 384.02 C 247.96 387.21 237.42 387.83 234.00 394.00 Z"/>
</g>
<g fill="#000000" fill-opacity="0.00" stroke="None">
<path d="
M 0.00 474.00 
L 457.00 474.00
L 457.00 0.00
L 0.00 0.00
L 0.00 474.00
M 274.00 109.00 
C 284.57 121.37 292.58 135.59 297.00 151.00
C 328.97 139.65 365.45 145.37 400.00 144.00
C 399.75 191.84 406.92 244.65 372.00 281.00
C 368.41 285.21 364.41 289.72 360.00 293.00
C 354.02 297.45 347.39 302.71 341.00 306.00
C 341.27 306.11 341.89 309.56 342.00 310.00
C 344.11 318.71 351.31 329.77 350.00 339.00
C 349.54 342.21 346.91 345.45 344.00 347.00
C 337.66 350.38 328.94 352.83 322.00 355.00
C 320.16 356.53 320.13 356.50 322.00 358.00
C 329.49 364.04 351.83 363.01 349.99 378.01 C 348.16 393.01 340.36 398.04 337.23 413.23 C 334.09 428.42 316.52 425.38 305.32 419.68 C 294.12 413.98 281.92 411.60 270.31 406.69 C 258.69 401.79 245.91 398.18 234.00 394.00
C 231.72 393.20 229.41 391.26 227.00 391.00
C 214.59 389.69 200.33 401.11 188.77 403.77 C 177.21 406.43 161.61 413.79 150.98 416.98 C 140.34 420.16 121.40 432.44 114.25 418.75 C 107.09 405.07 106.57 395.13 101.02 380.98 C 95.47 366.82 118.50 360.96 128.00 358.00
C 129.99 356.29 129.46 355.30 127.00 354.00
C 119.83 350.22 106.38 350.73 101.75 342.25 C 97.13 333.77 104.53 321.44 107.00 313.00
C 107.52 311.22 107.95 310.38 109.00 309.00
C 109.64 308.16 109.82 307.25 111.00 307.00
C 103.36 303.22 95.85 297.41 89.00 292.00
C 84.95 288.80 81.30 284.86 78.00 281.00
C 60.92 261.02 50.00 235.56 50.00 209.00
C 49.76 206.49 49.76 203.45 50.00 201.00
C 50.00 185.67 50.00 170.33 50.00 155.00
C 49.75 152.40 49.03 150.77 50.00 148.00
C 50.42 146.81 49.68 145.22 50.00 144.00
C 84.18 145.60 120.42 139.28 152.00 151.00
C 156.39 135.59 164.51 121.38 175.00 109.00
C 190.09 91.34 208.81 76.49 224.00 59.00
C 241.00 75.17 257.88 92.05 274.00 109.00 Z"/>
</g>
<g fill="#096FC3" fill-opacity="0.46" stroke="None">
<path d="
M 175.00 109.00 
C 191.25 92.75 208.53 76.93 224.00 60.00
C 241.17 75.67 256.88 93.38 274.00 109.00
C 257.88 92.05 241.00 75.17 224.00 59.00
C 208.81 76.49 190.09 91.34 175.00 109.00 Z"/>
</g>
<g fill="#02C8FC" fill-opacity="1.00" stroke="None">
<path d="
M 175.00 109.00 
C 164.51 121.38 156.39 135.59 152.00 151.00
C 120.42 139.28 84.18 145.60 50.00 144.00
C 49.68 145.22 50.42 146.81 50.00 148.00
C 49.60 150.16 50.00 152.80 50.00 155.00
C 50.00 170.33 50.00 185.67 50.00 201.00
C 50.00 203.67 50.00 206.33 50.00 209.00
C 50.00 235.56 60.92 261.02 78.00 281.00
C 81.53 284.53 85.40 288.67 89.00 292.00
C 95.85 297.41 103.36 303.22 111.00 307.00
C 127.80 315.31 145.72 319.00 165.00 319.00
C 133.62 315.96 109.70 299.84 91.08 272.92 C 72.46 246.00 73.62 202.69 75.00 169.00
C 86.49 168.68 96.35 169.42 108.00 169.00 C 119.65 168.58 128.02 169.43 140.00 170.00 C 151.98 170.57 145.25 184.75 148.00 194.00
C 151.14 218.15 159.99 239.27 176.00 258.00
C 176.99 258.67 178.06 258.03 178.00 258.00
C 149.34 219.85 158.07 171.30 184.00 135.00
C 194.43 120.39 211.76 110.66 222.00 96.00
C 215.13 90.26 222.94 80.13 231.00 82.00 C 239.06 83.87 237.90 99.44 229.00 98.00
C 241.01 109.21 256.62 122.60 266.00 136.00
C 291.17 171.95 299.18 220.48 271.00 258.00
C 270.83 258.07 272.21 258.54 273.00 258.00
C 288.66 239.67 297.92 218.67 301.00 195.00
C 302.20 185.79 297.45 171.44 308.22 170.22 C 318.99 169.00 329.83 168.78 341.00 169.00 C 352.17 169.22 363.79 168.84 375.00 169.00
C 376.20 202.78 377.64 244.23 359.75 271.75 C 341.85 299.27 319.04 313.17 288.00 318.00
C 287.94 318.01 288.00 319.00 288.00 319.00
C 306.15 319.00 323.05 314.57 339.00 307.00
C 339.39 306.81 340.47 306.27 341.00 306.00
C 347.39 302.71 354.02 297.45 360.00 293.00
C 364.02 289.49 368.24 284.76 372.00 281.00
C 406.92 244.65 399.75 191.84 400.00 144.00
C 365.45 145.37 328.97 139.65 297.00 151.00
C 292.58 135.59 284.57 121.37 274.00 109.00
C 256.88 93.38 241.17 75.67 224.00 60.00
C 208.53 76.93 191.25 92.75 175.00 109.00 Z"/>
</g>
<g fill="#28C4D6" fill-opacity="1.00" stroke="None">
<path d="
M 222.00 96.00 
C 222.16 95.77 223.00 96.00 223.00 96.00
C 222.57 90.23 221.97 81.28 230.67 84.33 C 239.37 87.38 231.82 96.98 227.00 97.00
C 226.94 97.07 228.98 97.98 229.00 98.00
C 237.90 99.44 239.06 83.87 231.00 82.00 C 222.94 80.13 215.13 90.26 222.00 96.00 Z"/>
</g>
<g fill="#48BEB6" fill-opacity="1.00" stroke="None">
<path d="
M 223.00 96.00 
C 224.82 95.20 225.36 95.74 227.00 97.00
C 231.82 96.98 239.37 87.38 230.67 84.33 C 221.97 81.28 222.57 90.23 223.00 96.00
M 230.00 87.00 
C 233.12 88.87 229.85 95.01 226.33 92.67 C 222.81 90.33 226.63 84.98 230.00 87.00 Z"/>
</g>
<g fill="#0875F3" fill-opacity="1.00" stroke="None">
<path d="
M 230.00 87.00 
C 226.63 84.98 222.81 90.33 226.33 92.67 C 229.85 95.01 233.12 88.87 230.00 87.00 Z"/>
</g>
<g fill="#0059FE" fill-opacity="1.00" stroke="None">
<path d="
M 223.00 96.00 
C 219.64 104.04 208.77 108.58 203.75 115.75 C 198.74 122.92 189.54 128.39 184.00 135.00
C 158.07 171.30 149.34 219.85 178.00 258.00
C 179.65 260.20 181.37 262.72 183.00 265.00
C 186.34 268.34 188.44 273.63 193.00 275.00
C 172.32 253.68 168.30 218.21 176.32 191.32 C 184.35 164.44 205.82 150.51 224.00 130.00
C 243.35 149.61 263.84 163.95 272.32 190.68 C 280.80 217.40 276.83 253.66 256.00 275.00
C 260.67 273.76 262.53 268.09 266.00 265.00
C 267.65 262.69 269.38 260.15 271.00 258.00
C 299.18 220.48 291.17 171.95 266.00 136.00
C 260.45 129.24 252.58 122.93 246.25 116.75 C 239.92 110.57 233.86 102.25 227.00 97.00
C 225.36 95.74 224.82 95.20 223.00 96.00 Z"/>
</g>
<g fill="#02A0FC" fill-opacity="1.00" stroke="None">
<path d="
M 184.00 135.00 
C 189.54 128.39 198.74 122.92 203.75 115.75 C 208.77 108.58 219.64 104.04 223.00 96.00
C 223.00 96.00 222.16 95.77 222.00 96.00
C 211.76 110.66 194.43 120.39 184.00 135.00 Z"/>
</g>
<g fill="#03A1FB" fill-opacity="1.00" stroke="None">
<path d="
M 266.00 136.00 
C 256.62 122.60 241.01 109.21 229.00 98.00
C 228.98 97.98 226.94 97.07 227.00 97.00
C 233.86 102.25 239.92 110.57 246.25 116.75 C 252.58 122.93 260.45 129.24 266.00 136.00 Z"/>
</g>
<g fill="#0002FE" fill-opacity="1.00" stroke="None">
<path d="
M 183.00 265.00 
C 180.67 262.67 178.12 260.49 176.00 258.00
C 159.99 239.27 151.14 218.15 148.00 194.00
C 132.00 194.00 116.00 194.00 100.00 194.00
C 98.72 222.55 98.10 256.88 114.25 279.75 C 130.40 302.61 150.29 314.19 176.00 319.00
C 188.67 319.00 201.33 319.00 214.00 319.00
C 214.50 319.00 215.50 319.00 216.00 319.00
C 222.33 319.00 228.67 319.00 235.00 319.00
C 248.00 319.00 261.00 319.00 274.00 319.00
C 299.90 315.30 318.83 302.45 335.30 280.30 C 351.78 258.16 351.43 222.22 350.00 194.00
C 333.75 194.66 316.80 192.68 301.00 195.00
C 297.92 218.67 288.66 239.67 273.00 258.00
C 270.84 260.53 268.28 262.72 266.00 265.00
C 262.53 268.09 260.67 273.76 256.00 275.00
C 276.83 253.66 280.80 217.40 272.32 190.68 C 263.84 163.95 243.35 149.61 224.00 130.00
C 205.82 150.51 184.35 164.44 176.32 191.32 C 168.30 218.21 172.32 253.68 193.00 275.00
C 188.44 273.63 186.34 268.34 183.00 265.00 Z"/>
</g>
<g fill="#0000C0" fill-opacity="0.01" stroke="None">
<path d="
M 50.00 155.00 
C 50.00 152.80 49.60 150.16 50.00 148.00
C 49.03 150.77 49.75 152.40 50.00 155.00 Z"/>
</g>
<g fill="#0059FF" fill-opacity="1.00" stroke="None">
<path d="
M 165.00 319.00 
C 168.67 319.00 172.33 319.00 176.00 319.00
C 150.29 314.19 130.40 302.61 114.25 279.75 C 98.10 256.88 98.72 222.55 100.00 194.00
C 116.00 194.00 132.00 194.00 148.00 194.00
C 145.25 184.75 151.98 170.57 140.00 170.00 C 128.02 169.43 119.65 168.58 108.00 169.00 C 96.35 169.42 86.49 168.68 75.00 169.00
C 73.62 202.69 72.46 246.00 91.08 272.92 C 109.70 299.84 133.62 315.96 165.00 319.00 Z"/>
</g>
<g fill="#0059FF" fill-opacity="1.00" stroke="None">
<path d="
M 301.00 195.00 
C 316.80 192.68 333.75 194.66 350.00 194.00
C 351.43 222.22 351.78 258.16 335.30 280.30 C 318.83 302.45 299.90 315.30 274.00 319.00
C 276.33 319.00 278.67 319.00 281.00 319.00
C 282.63 318.84 285.77 318.20 288.00 318.00
C 319.04 313.17 341.85 299.27 359.75 271.75 C 377.64 244.23 376.20 202.78 375.00 169.00
C 363.79 168.84 352.17 169.22 341.00 169.00 C 329.83 168.78 318.99 169.00 308.22 170.22 C 297.45 171.44 302.20 185.79 301.00 195.00 Z"/>
</g>
<g fill="#0000FF" fill-opacity="0.00" stroke="None">
<path d="
M 50.00 209.00 
C 50.00 206.33 50.00 203.67 50.00 201.00
C 49.76 203.45 49.76 206.49 50.00 209.00 Z"/>
</g>
<g fill="#0086FE" fill-opacity="1.00" stroke="None">
<path d="
M 183.00 265.00 
C 181.37 262.72 179.65 260.20 178.00 258.00
C 178.06 258.03 176.99 258.67 176.00 258.00
C 178.12 260.49 180.67 262.67 183.00 265.00 Z"/>
</g>
<g fill="#0086FE" fill-opacity="1.00" stroke="None">
<path d="
M 266.00 265.00 
C 268.28 262.72 270.84 260.53 273.00 258.00
C 272.21 258.54 270.83 258.07 271.00 258.00
C 269.38 260.15 267.65 262.69 266.00 265.00 Z"/>
</g>
<g fill="#0966BF" fill-opacity="0.38" stroke="None">
<path d="
M 89.00 292.00 
C 85.40 288.67 81.53 284.53 78.00 281.00
C 81.30 284.86 84.95 288.80 89.00 292.00 Z"/>
</g>
<g fill="#0864BD" fill-opacity="0.34" stroke="None">
<path d="
M 360.00 293.00 
C 364.41 289.72 368.41 285.21 372.00 281.00
C 368.24 284.76 364.02 289.49 360.00 293.00 Z"/>
</g>
<g fill="#382A62" fill-opacity="0.37" stroke="None">
<path d="
M 339.00 307.00 
C 339.02 306.90 341.90 309.80 342.00 310.00
C 341.89 309.56 341.27 306.11 341.00 306.00
C 340.47 306.27 339.39 306.81 339.00 307.00 Z"/>
</g>
<g fill="#A12A2A" fill-opacity="1.00" stroke="None">
<path d="
M 109.00 309.00 
C 108.50 309.93 107.34 312.17 107.00 313.00
C 104.53 321.44 97.13 333.77 101.75 342.25 C 106.38 350.73 119.83 350.22 127.00 354.00
C 136.54 352.98 146.06 345.20 156.02 343.02 C 165.99 340.85 176.05 334.83 186.07 332.07 C 196.10 329.32 205.97 324.03 216.00 321.00
C 215.92 319.74 213.94 320.44 214.00 319.00
C 201.33 319.00 188.67 319.00 176.00 319.00
C 172.33 319.00 168.67 319.00 165.00 319.00
C 145.72 319.00 127.80 315.31 111.00 307.00
C 109.82 307.25 109.64 308.16 109.00 309.00 Z"/>
</g>
<g fill="#A42A2A" fill-opacity="1.00" stroke="None">
<path d="
M 288.00 319.00 
C 285.67 319.00 283.33 319.00 281.00 319.00
C 278.67 319.00 276.33 319.00 274.00 319.00
C 261.00 319.00 248.00 319.00 235.00 319.00
C 232.17 319.51 226.98 321.83 224.00 323.00
C 192.66 335.30 160.38 347.90 128.00 358.00
C 118.50 360.96 95.47 366.82 101.02 380.98 C 106.57 395.13 107.09 405.07 114.25 418.75 C 121.40 432.44 140.34 420.16 150.98 416.98 C 161.61 413.79 177.21 406.43 188.77 403.77 C 200.33 401.11 214.59 389.69 227.00 391.00
C 231.49 388.98 240.27 383.22 248.22 381.22 C 256.18 379.23 264.65 375.27 272.68 372.68 C 280.71 370.08 288.54 366.55 296.69 363.69 C 304.85 360.84 313.67 357.60 322.00 355.00
C 328.94 352.83 337.66 350.38 344.00 347.00
C 345.70 345.92 349.66 340.62 350.00 339.00
C 351.31 329.77 344.11 318.71 342.00 310.00
C 341.90 309.80 339.02 306.90 339.00 307.00
C 323.05 314.57 306.15 319.00 288.00 319.00 Z"/>
</g>
<g fill="#3E1E51" fill-opacity="0.33" stroke="None">
<path d="
M 107.00 313.00 
C 107.34 312.17 108.50 309.93 109.00 309.00
C 107.95 310.38 107.52 311.22 107.00 313.00 Z"/>
</g>
<g fill="#008EFE" fill-opacity="1.00" stroke="None">
<path d="
M 281.00 319.00 
C 283.33 319.00 285.67 319.00 288.00 319.00
C 288.00 319.00 287.94 318.01 288.00 318.00
C 285.77 318.20 282.63 318.84 281.00 319.00 Z"/>
</g>
<g fill="#812928" fill-opacity="0.99" stroke="None">
<path d="
M 127.00 354.00 
C 129.46 355.30 129.99 356.29 128.00 358.00
C 160.38 347.90 192.66 335.30 224.00 323.00
C 221.46 322.87 217.99 320.01 216.00 319.00
C 215.50 319.00 214.50 319.00 214.00 319.00
C 213.94 320.44 215.92 319.74 216.00 321.00
C 205.97 324.03 196.10 329.32 186.07 332.07 C 176.05 334.83 165.99 340.85 156.02 343.02 C 146.06 345.20 136.54 352.98 127.00 354.00 Z"/>
</g>
<g fill="#351F4A" fill-opacity="1.00" stroke="None">
<path d="
M 224.00 323.00 
C 226.98 321.83 232.17 319.51 235.00 319.00
C 228.67 319.00 222.33 319.00 216.00 319.00
C 217.99 320.01 221.46 322.87 224.00 323.00 Z"/>
</g>
<g fill="#492051" fill-opacity="0.28" stroke="None">
<path d="
M 344.00 347.00 
C 346.91 345.45 349.54 342.21 350.00 339.00
C 349.66 340.62 345.70 345.92 344.00 347.00 Z"/>
</g>
<g fill="#802928" fill-opacity="0.98" stroke="None">
<path d="
M 227.00 391.00 
C 229.41 391.26 231.72 393.20 234.00 394.00
C 237.42 387.83 247.96 387.21 255.02 384.02 C 262.09 380.84 270.39 378.56 277.68 375.68 C 284.97 372.80 293.02 370.28 300.22 367.22 C 307.43 364.17 316.90 362.95 322.00 358.00
C 320.13 356.50 320.16 356.53 322.00 355.00
C 313.67 357.60 304.85 360.84 296.69 363.69 C 288.54 366.55 280.71 370.08 272.68 372.68 C 264.65 375.27 256.18 379.23 248.22 381.22 C 240.27 383.22 231.49 388.98 227.00 391.00 Z"/>
</g>
<g fill="#A1292A" fill-opacity="0.99" stroke="None">
<path d="
M 234.00 394.00 
C 245.91 398.18 258.69 401.79 270.31 406.69 C 281.92 411.60 294.12 413.98 305.32 419.68 C 316.52 425.38 334.09 428.42 337.23 413.23 C 340.36 398.04 348.16 393.01 349.99 378.01 C 351.83 363.01 329.49 364.04 322.00 358.00
C 316.90 362.95 307.43 364.17 300.22 367.22 C 293.02 370.28 284.97 372.80 277.68 375.68 C 270.39 378.56 262.09 380.84 255.02 384.02 C 247.96 387.21 237.42 387.83 234.00 394.00 Z"/>
</g>
</svg>